Funny Games (1997)
 
http://www.imdb.com/title/tt0119167/

Director: Michael Haneke
Genre: Crime | Drama | Mystery | Thriller

Two psychotic young men take a mother, father, and son hostage in their vacation cabin and force them to play sadistic "games" with one another for their own amusement. 


Duration                         : 1h 44mn
Overall bit rate                 : 1 297 Kbps

Codec ID/Hint                    : XviD
Bit rate                         : 1 161 Kbps
Width                            : 720 pixels
Height                           : 416 pixels
Display aspect ratio             : 16:9
Frame rate                       : 25.000 fps
Stream size                      : 865 MiB (90%)

Codec ID/Hint                    : MP3
Bit rate mode                    : Constant
Bit rate                         : 128 Kbps
Channel(s)                       : 2 channels
Sampling rate                    : 48.0 KHz
Stream size                      : 94.2 MiB (10%)
 
http://www.shotpix.com/images/91866365012053097228.jpg 
http://www.shotpix.com/images/48375225779312126105.jpg 
http://www.shotpix.com/images/34850752661467432605.jpg 
http://www.shotpix.com/images/28436126311590184549.jpg 
http://www.shotpix.com/images/80417052166126680382.jpg 
http://www.shotpix.com/images/13109608040650256122.jpg 
http://www.shotpix.com/images/85913618560525084947.jpg 
http://www.shotpix.com/images/63882912162817756463.jpg 
http://www.shotpix.com/images/26625096640122669487.jpg 
http://www.shotpix.com/images/67328799231072261687.jpg 
http://www.shotpix.com/images/32057381227288437793.jpg

English subtitles included (NOT hardcoded).

Enjoy!